<!-- This Source Code Form is subject to the terms of the Mozilla Public
   - License, v. 2.0. If a copy of the MPL was not distributed with this
   - file, You can obtain one at http://mozilla.org/MPL/2.0/. -->
<svg xmlns="http://www.w3.org/2000/svg"
     width="32px" height="32px" viewBox="0 0 32 32">
  <path fill="context-fill" d="M14.0684,8.251 C14.8574,7.644 16.0004,8.207 16.0004,9.202 L16.0004,9.202 L16.0004,22.797 C16.0004,23.793 14.8574,24.355 14.0684,23.748 L14.0684,23.748 L9.1824,19.988 L6.0004,19.988 C4.8954,19.988 4.0004,19.092 4.0004,17.988 L4.0004,17.988 L4.0004,13.992 C4.0004,12.885 4.8974,11.988 6.0044,11.988 L6.0044,11.988 L9.2134,11.988 Z M26.9972,11.3318 C27.4552,10.8728 28.1982,10.8728 28.6562,11.3318 C29.1142,11.7898 29.1142,12.5318 28.6562,12.9908 L28.6562,12.9908 L25.6582,15.9878 L28.6562,18.9848 C29.1142,19.4438 29.1142,20.1858 28.6562,20.6438 C28.4272,20.8728 28.1272,20.9878 27.8272,20.9878 C27.5262,20.9878 27.2262,20.8728 26.9972,20.6438 L26.9972,20.6438 L24.0002,17.6468 L21.0022,20.6438 C20.7722,20.8728 20.4722,20.9878 20.1722,20.9878 C19.8722,20.9878 19.5722,20.8728 19.3432,20.6438 C18.8852,20.1858 18.8852,19.4438 19.3432,18.9848 L19.3432,18.9848 L22.3412,15.9878 L19.3432,12.9908 C18.8852,12.5318 18.8852,11.7898 19.3432,11.3318 C19.8012,10.8728 20.5442,10.8728 21.0022,11.3318 L21.0022,11.3318 L24.0002,14.3288 Z"/>
</svg>

