<!-- This Source Code Form is subject to the terms of the Mozilla Public
   - License, v. 2.0. If a copy of the MPL was not distributed with this
   - file, You can obtain one at http://mozilla.org/MPL/2.0/. -->
<svg xmlns="http://www.w3.org/2000/svg"
     width="32px" height="32px" viewBox="0 0 32 32">
  <path fill="context-fill"
        d="M23.7838,6.9998 C24.0578,6.9998 24.3158,7.1068 24.5088,7.2998 C26.8848,9.6758 28.1968,12.8378 28.1998092,16.2028 C28.2038,19.5698 26.9018,22.7278 24.5298,25.0988 C24.3368,25.2918 24.0788,25.3988 23.8058,25.3988 C23.5318,25.3988 23.2748,25.2918 23.0808,25.0988 C22.8878,24.9048 22.7808,24.6478 22.7808,24.3738 C22.7808,24.1008 22.8878,23.8428 23.0808,23.6498 C27.1838,19.5478 27.1738,12.8628 23.0598,8.7488 C22.8658,8.5558 22.7598,8.2978 22.7598,8.0248 C22.7598,7.7508 22.8658,7.4928 23.0598,7.2998 C23.2528,7.1068 23.5108,6.9998 23.7838,6.9998 Z M13.0684,8.4624 C13.8574,7.8554 15.0004,8.4184 15.0004,9.4134 L15.0004,9.4134 L15.0004,23.0084 C15.0004,24.0044 13.8574,24.5664 13.0684,23.9594 L13.0684,23.9594 L8.1824,20.1994 L5.0004,20.1994 C3.8954,20.1994 3.0004,19.3034 3.0004,18.1994 L3.0004,18.1994 L3.0004,14.2034 C3.0004,13.0964 3.8974,12.1994 5.0044,12.1994 L5.0044,12.1994 L8.2134,12.1994 Z M20.8899,9.944 C21.1689,9.944 21.4309,10.054 21.6279,10.25 C24.9139,13.536 24.9139,18.884 21.6279,22.17 C21.4309,22.366 21.1689,22.476 20.8899,22.476 C20.6109,22.476 20.3499,22.367 20.1509,22.17 C19.9539,21.972 19.8449,21.71 19.8459,21.431 C19.8459,21.152 19.9539,20.89 20.1509,20.693 C21.3479,19.498 22.0059,17.905 22.0059,16.21 C22.0059,14.515 21.3479,12.923 20.1509,11.728 C19.7439,11.32 19.7439,10.657 20.1509,10.25 C20.3499,10.053 20.6109,9.944 20.8899,9.944 Z M17.9732,12.8523 C18.2472,12.8523 18.5052,12.9593 18.6992,13.1523 C20.3852,14.8393 20.3852,17.5823 18.6992,19.2673 C18.5052,19.4613 18.2472,19.5673 17.9732,19.5673 C17.7002,19.5673 17.4422,19.4613 17.2492,19.2673 C16.8492,18.8683 16.8492,18.2173 17.2492,17.8173 C17.6782,17.3883 17.9142,16.8183 17.9142,16.2103 C17.9142,15.6023 17.6782,15.0313 17.2492,14.6023 C16.8492,14.2033 16.8492,13.5513 17.2492,13.1523 C17.4422,12.9593 17.7002,12.8523 17.9732,12.8523 Z"/>
</svg>

