<!-- This Source Code Form is subject to the terms of the Mozilla Public
   - License, v. 2.0. If a copy of the MPL was not distributed with this
   - file, You can obtain one at http://mozilla.org/MPL/2.0/. -->
<svg xmlns="http://www.w3.org/2000/svg"
     width="32px" height="32px" viewBox="0 0 32 32">
  <path fill="context-fill"
        d="M12.9982783,18 C13.5512287,18 14,18.4477696 14,19.0017217 L14,19.0017217 L14,24.0103303 C14,24.5642824 13.5512287,25.012052 12.9982783,25.012052 C12.4453279,25.012052 11.9965566,24.5642824 11.9965566,24.0103303 L11.9965566,24.0103303 L11.9965566,21.4198779 L7.71018939,25.7062451 C7.3185162,26.0979183 6.68442636,26.0979183 6.29375489,25.7062451 C5.9020817,25.3155736 5.9020817,24.6814838 6.29375489,24.2898106 L6.29375489,24.2898106 L10.5801221,20.0034434 L7.98966974,20.0034434 C7.43671936,20.0034434 6.98794804,19.5556738 6.98794804,19.0017217 C6.98794804,18.4477696 7.43671936,18 7.98966974,18 L7.98966974,18 Z M24.0104303,18 C24.5633806,18 25.012152,18.4477696 25.012152,19.0017217 C25.012152,19.5556738 24.5633806,20.0034434 24.0104303,20.0034434 L24.0104303,20.0034434 L21.4199779,20.0034434 L25.7063451,24.2898106 C26.0980183,24.6814838 26.0980183,25.3155736 25.7063451,25.7062451 C25.3156736,26.0979183 24.6815838,26.0979183 24.2899106,25.7062451 L24.2899106,25.7062451 L20.0035434,21.4198779 L20.0035434,24.0103303 C20.0035434,24.5642824 19.5547721,25.012052 19.0018217,25.012052 C18.4488713,25.012052 18.0001,24.5642824 18.0001,24.0103303 L18.0001,24.0103303 L18.0001,19.0017217 C18.0001,18.4477696 18.4488713,18 19.0018217,18 L19.0018217,18 Z M24.2901106,6.30710489 C24.6817838,5.9154317 25.3148719,5.9154317 25.7065451,6.30710489 C26.0982183,6.69877808 26.0982183,7.3318662 25.7065451,7.72353939 L25.7065451,7.72353939 L21.4201779,12.0099066 L24.0106303,12.0099066 C24.5635806,12.0099066 25.012352,12.4586779 25.012352,13.0116283 C25.012352,13.5655804 24.5635806,14.01335 24.0106303,14.01335 L24.0106303,14.01335 L19.0020217,14.01335 C18.4480696,14.01335 18.0003,13.5655804 18.0003,13.0116283 L18.0003,13.0116283 L18.0003,8.00301974 C18.0003,7.45006936 18.4480696,7.00129804 19.0020217,7.00129804 C19.5549721,7.00129804 20.0037434,7.45006936 20.0037434,8.00301974 L20.0037434,8.00301974 L20.0037434,10.5934721 Z M6.29380489,6.29380489 C6.68447636,5.9021317 7.3185662,5.9021317 7.71023939,6.29380489 L7.71023939,6.29380489 L11.9966066,10.5801721 L11.9966066,7.98971974 C11.9966066,7.43576764 12.4453779,6.98799804 12.9983283,6.98799804 C13.5512787,6.98799804 14.00005,7.43576764 14.00005,7.98971974 L14.00005,7.98971974 L14.00005,12.9983283 C14.00005,13.5512787 13.5512787,14.00005 12.9983283,14.00005 L12.9983283,14.00005 L7.98971974,14.00005 C7.43676936,14.00005 6.98799804,13.5512787 6.98799804,12.9983283 C6.98799804,12.4443762 7.43676936,11.9966066 7.98971974,11.9966066 L7.98971974,11.9966066 L10.5801721,11.9966066 L6.29380489,7.71023939 C5.9021317,7.3185662 5.9021317,6.68447636 6.29380489,6.29380489 Z"/>
</svg>

