<!-- This Source Code Form is subject to the terms of the Mozilla Public
   - License, v. 2.0. If a copy of the MPL was not distributed with this
   - file, You can obtain one at http://mozilla.org/MPL/2.0/. -->
<svg xmlns="http://www.w3.org/2000/svg"
     width="32px" height="32px" viewBox="0 0 32 32">
  <path fill="context-fill"
        d="M12.2793,18.3066 C12.6703,17.9156 13.3023,17.9156 13.6933,18.3066 C14.0843,18.6976 14.0843,19.3296 13.6933,19.7206 L13.6933,19.7206 L9.4143,23.9996 L12.0003,23.9996 C12.5523,23.9996 13.0003,24.4476 13.0003,24.9996 C13.0003,25.5526 12.5523,25.9996 12.0003,25.9996 L12.0003,25.9996 L7.0003,25.9996 C6.4473,25.9996 6.0003,25.5526 6.0003,24.9996 L6.0003,24.9996 L6.0003,19.9996 C6.0003,19.4476 6.4473,18.9996 7.0003,18.9996 C7.5523,18.9996 8.0003,19.4476 8.0003,19.9996 L8.0003,19.9996 L8.0003,22.5856 Z M18.2933,18.2933 C18.6833,17.9023 19.3163,17.9023 19.7073,18.2933 L19.7073,18.2933 L23.9863,22.5723 L23.9863,19.9863 C23.9863,19.4333 24.4343,18.9863 24.9863,18.9863 C25.5383,18.9863 25.9863,19.4333 25.9863,19.9863 L25.9863,19.9863 L25.9863,24.9863 C25.9863,25.5383 25.5383,25.9863 24.9863,25.9863 L24.9863,25.9863 L19.9863,25.9863 C19.4343,25.9863 18.9863,25.5383 18.9863,24.9863 C18.9863,24.4333 19.4343,23.9863 19.9863,23.9863 L19.9863,23.9863 L22.5723,23.9863 L18.2933,19.7073 C17.9023,19.3163 17.9023,18.6833 18.2933,18.2933 Z M25,6 C25.552,6 26,6.447 26,7 L26,7 L26,12 C26,12.553 25.552,13 25,13 C24.448,13 24,12.553 24,12 L24,12 L24,9.414 L19.721,13.693 C19.33,14.084 18.697,14.084 18.307,13.693 C17.916,13.303 17.916,12.67 18.307,12.279 L18.307,12.279 L22.586,8 L20,8 C19.448,8 19,7.553 19,7 C19,6.447 19.448,6 20,6 L20,6 Z M12.0001,6 C12.5521,6 13.0001,6.447 13.0001,7 C13.0001,7.553 12.5521,8 12.0001,8 L12.0001,8 L9.4141,8 L13.6931,12.279 C14.0841,12.67 14.0841,13.303 13.6931,13.693 C13.3031,14.084 12.6701,14.084 12.2791,13.693 L12.2791,13.693 L8.0001,9.414 L8.0001,12 C8.0001,12.553 7.5521,13 7.0001,13 C6.4481,13 6.0001,12.553 6.0001,12 L6.0001,12 L6.0001,7 C6.0001,6.447 6.4481,6 7.0001,6 L7.0001,6 Z"/>
</svg>

